<?xml version="1.0" encoding="utf-8"?>
<svg xmlns="http://www.w3.org/2000/svg" width="96" height="48" viewBox="0 0 96 48" fill="none">
  <path d="M30.1676 24.352C30.1676 32.6648 23.3966 39.4358 15.0838 39.4358C6.77095 39.4358 0 32.6648 0 24.352C0 15.9721 6.77095 9.26816 15.0838 9.26816C23.3966 9.26816 30.1676 15.9721 30.1676 24.352Z" fill="white"/>
  <path d="M77.8994 34.5419C77.8324 34.5419 77.8324 34.5419 77.7654 34.5419H75.0168C74.3464 34.5419 74.0112 34.4078 73.81 34.2737C73.676 34.1397 73.4749 33.9385 73.4749 33.3352V26.5642H76.6257C77.0279 26.5642 77.4972 26.5642 77.8994 26.5642C80.4469 26.5642 80.4469 22.9441 77.8994 22.9441C76.4246 22.9441 74.9497 22.9441 73.5419 22.9441V21.4022C73.5419 21.067 73.5419 20.7318 73.5419 20.3966C73.5419 18.0503 69.5866 18.0503 69.5866 20.3966C69.5866 20.7318 69.5866 21.067 69.5866 21.4022V33C69.5866 33.067 69.5866 33.067 69.5866 33.1341C69.5866 33.2011 69.5866 33.2682 69.5866 33.3352C69.5866 33.4693 69.5866 33.6034 69.6536 33.7374C69.7877 34.8771 70.1899 35.8827 70.9274 36.6201C71.7989 37.4916 73.1397 38.0279 74.6816 38.0279H77.8324C77.8994 38.0279 77.8994 38.0279 77.9665 38.0279C79.0391 38.0279 79.9106 37.2235 79.9106 36.2849C79.8436 35.3464 78.9721 34.5419 77.8994 34.5419ZM91.9106 30.5866C91.9106 28.3743 90.3687 26.4972 88.0894 26.4972C85.743 26.4972 84.2681 28.3743 84.2681 30.5196V30.5866C84.2681 32.7989 85.81 34.676 88.0894 34.676C90.4357 34.676 91.9106 32.7989 91.9106 30.5866ZM88.0223 38.2961C83.4637 38.2961 80.1117 34.8771 80.1117 30.6536V30.5866C80.1117 26.2961 83.4637 22.8771 88.0223 22.8771C92.581 22.8771 95.933 26.2961 95.933 30.5196V30.5866C96 34.8101 92.581 38.2961 88.0223 38.2961ZM66.905 24.5531C66.905 22.2067 62.9497 22.2067 62.9497 24.5531C62.9497 24.8883 62.9497 32.1955 62.9497 32.1955C62.9497 33.8045 61.5419 34.9441 59.4637 34.9441C57.4525 34.9441 55.9777 33.8045 55.9777 32.1955C55.9777 32.1955 55.9777 24.8883 55.9777 24.5531C55.9777 22.2067 52.0223 22.2067 52.0223 24.5531C52.0223 24.7542 52.0223 31.4581 52.0223 31.4581C52.0223 34.8101 54.5698 38.229 59.4637 38.229C64.3575 38.229 66.905 34.8101 66.905 31.4581C66.905 31.5251 66.905 24.7542 66.905 24.5531ZM50.7486 35.8156C50.7486 35.8156 43.1732 20.933 42.5698 19.8603C41.8324 18.5866 39.1508 18.3184 38.2123 19.8603C37.4749 21.067 30.3687 35.8156 30.3687 35.8156C29.4302 38.0279 33.5866 39.3017 34.6592 37.0894C34.7933 36.7542 36.4693 33.2011 36.4693 33.2011L37.8771 29.9832L39.2849 26.7654C39.9553 25.3575 40.2235 24.5531 40.4246 23.8827H40.4916C40.6927 24.5531 40.9609 25.3575 41.5642 26.7654L42.838 29.8492C42.838 29.8492 41.229 29.8492 40.8268 29.8492C38.2793 29.8492 38.2793 33.4693 40.8268 33.4693C41.8324 33.4693 43.2402 33.4693 44.514 33.4693C44.9162 34.2737 46.1229 36.8212 46.257 37.0894C47.3966 39.3687 51.6201 38.095 50.7486 35.8156Z" fill="#3B3A39"/>
  <path d="M22.0559 20.6648C19.7095 20.6648 18.4358 22.5419 18.4358 24.2849C18.4358 26.0279 19.7095 27.905 22.0559 27.905C24.4022 27.905 25.676 26.0279 25.676 24.2849C25.743 22.5419 24.4693 20.6648 22.0559 20.6648Z" fill="#FF5A00"/>
  <path d="M22.0559 30.7877C17.8994 30.7877 15.6201 27.5028 15.6201 24.352C15.6201 21.2682 17.8994 17.9162 22.0559 17.9162C26.2123 17.9162 28.4916 21.2682 28.4916 24.352C28.4916 27.4358 26.2793 30.7877 22.0559 30.7877ZM15.0838 9.26816C6.77095 9.26816 0 15.9721 0 24.352C0 28.3743 1.60894 32.0615 4.15642 34.743H7.84358C10.4581 34.743 11.7318 33.6704 11.7318 31.3911V29.7151C10.6592 30.4525 9.45251 30.7877 8.04469 30.7877C3.88827 30.7877 1.60894 27.5028 1.60894 24.352C1.60894 21.2682 3.88827 17.9162 8.04469 17.9162C9.45251 17.9162 10.6592 18.3184 11.7318 19.0559C11.7989 18.5866 12.2682 18.2514 12.7374 18.2514H13.6089C14.1453 18.2514 14.6145 18.7207 14.6145 19.257V31.257C14.6145 35.0112 12.6704 37.1564 8.98324 37.4916H7.57542C9.78771 38.7654 12.3352 39.4358 15.0168 39.4358C23.3966 39.4358 30.1676 32.6648 30.1676 24.352C30.1676 15.9721 23.3966 9.26816 15.0838 9.26816Z" fill="#FF5A00"/>
  <path d="M8.0447 20.6648C5.69833 20.6648 4.42458 22.5419 4.42458 24.2849C4.42458 26.0279 5.69833 27.905 8.0447 27.905C10.3911 27.905 11.6648 26.0279 11.6648 24.2849C11.7318 22.5419 10.4581 20.6648 8.0447 20.6648Z" fill="#FF5A00"/>
</svg>