<svg width="1122" height="256" viewBox="0 0 1122 256" fill="none" xmlns="http://www.w3.org/2000/svg">
<path d="M549.989 107.367V129.123H544.73V78.7173H570.589V84.0169H549.989V102.107H568.876V107.367H549.989Z" fill="white"/>
<path d="M609.477 129.123L601.508 109.2C600.898 109.236 600.286 109.236 599.675 109.2H591.228V129.123H586.009V78.7174H599.914C601.953 78.5843 603.997 78.8857 605.91 79.6019C607.824 80.3181 609.563 81.4327 611.014 82.8718C612.464 84.3109 613.592 86.0417 614.323 87.9496C615.054 89.8575 615.372 91.899 615.254 93.9388C615.421 96.8501 614.708 99.7442 613.209 102.245C611.71 104.746 609.493 106.739 606.847 107.965L615.175 129.283L609.477 129.123ZM591.308 83.8576V104.179H599.596C600.965 104.266 602.337 104.062 603.621 103.578C604.905 103.095 606.072 102.344 607.044 101.376C608.015 100.408 608.771 99.2441 609.259 97.9619C609.747 96.6797 609.957 95.3084 609.875 93.9388C609.955 92.5821 609.742 91.2242 609.249 89.9577C608.756 88.6912 607.996 87.5459 607.02 86.6002C606.044 85.6545 604.876 84.9306 603.594 84.4779C602.313 84.0252 600.949 83.8544 599.596 83.9772L591.308 83.8576Z" fill="white"/>
<path d="M636.093 105.972V123.823H657.25V129.123H630.834V78.7173H656.693V84.0169H636.093V100.752H654.979V105.972H636.093Z" fill="white"/>
<path d="M701.039 113.862C701.235 116.645 700.681 119.429 699.433 121.925C698.186 124.42 696.291 126.534 693.947 128.047L700.96 139.324H694.345L688.488 129.8C687.654 129.895 686.812 129.895 685.978 129.8C677.173 129.8 671.116 123.584 671.116 113.663V93.9386C671.116 84.0567 676.894 78 685.978 78C695.063 78 700.88 84.216 700.88 93.9386L701.039 113.862ZM676.495 113.862C676.344 115.216 676.48 116.586 676.895 117.884C677.31 119.181 677.993 120.377 678.901 121.392C679.81 122.407 680.922 123.219 682.165 123.775C683.409 124.331 684.755 124.619 686.118 124.619C687.48 124.619 688.826 124.331 690.07 123.775C691.313 123.219 692.426 122.407 693.334 121.392C694.242 120.377 694.926 119.181 695.34 117.884C695.755 116.586 695.891 115.216 695.74 113.862V93.9386C695.891 92.5848 695.755 91.2144 695.34 89.9169C694.926 88.6193 694.242 87.4239 693.334 86.4086C692.426 85.3934 691.313 84.5812 690.07 84.0252C688.826 83.4691 687.48 83.1817 686.118 83.1817C684.755 83.1817 683.409 83.4691 682.165 84.0252C680.922 84.5812 679.81 85.3934 678.901 86.4086C677.993 87.4239 677.31 88.6193 676.895 89.9169C676.48 91.2144 676.344 92.5848 676.495 93.9386V113.862Z" fill="white"/>
<path d="M745.267 78.7173V113.862C745.267 123.784 739.33 130 730.644 130C721.958 130 716.1 123.784 716.1 113.862V78.797H721.32V113.862C721.32 119.998 724.707 124.541 730.644 124.541C731.986 124.535 733.312 124.243 734.534 123.686C735.755 123.129 736.845 122.319 737.73 121.31C738.615 120.3 739.276 119.114 739.668 117.83C740.061 116.546 740.176 115.194 740.007 113.862V78.7173H745.267Z" fill="white"/>
<path d="M767.818 105.972V123.823H788.976V129.123H762.599V78.7173H788.458V84.0169H767.818V100.752H786.745V105.972H767.818Z" fill="white"/>
<path d="M833.641 129.123H829.298L809.655 90.1532V129.123H804.754V78.7173H809.456L828.78 117.089V78.7173H833.641V129.123Z" fill="white"/>
<path d="M847.029 78.7173H876.155V84.0169H864.202V129.123H858.982V84.0169H847.029V78.7173Z" fill="white"/>
<path d="M689.684 191.005V212.801H684.424V162.395H710.283V167.695H689.684V185.785H708.57V191.005H689.684Z" fill="white"/>
<path d="M731.042 207.501H750.805V212.801H725.783V162.395H731.042V207.501Z" fill="white"/>
<path d="M762.2 162.395L772.401 186.94L782.68 162.395H787.98L774.911 192.638V212.801H769.651V192.718L756.542 162.395H762.2Z" fill="white"/>
<path d="M807.902 189.65V207.501H829.059V212.801H802.682V162.395H828.541V167.695H807.902V184.43H826.788V189.65H807.902Z" fill="white"/>
<path d="M868.226 212.801L860.257 192.877C859.647 192.913 859.035 192.913 858.425 192.877H849.978V212.801H844.758V162.395H858.703C860.741 162.261 862.783 162.563 864.694 163.279C866.606 163.996 868.343 165.111 869.79 166.551C871.238 167.99 872.362 169.722 873.088 171.63C873.815 173.538 874.127 175.578 874.004 177.616C874.178 180.534 873.469 183.437 871.97 185.946C870.47 188.455 868.249 190.454 865.597 191.682L873.924 213L868.226 212.801ZM850.057 167.535V187.857H858.345C859.725 187.946 861.108 187.738 862.401 187.248C863.693 186.758 864.866 185.996 865.84 185.014C866.814 184.033 867.567 182.854 868.047 181.557C868.527 180.261 868.724 178.876 868.625 177.497C868.705 176.14 868.491 174.782 867.998 173.516C867.506 172.249 866.745 171.104 865.769 170.158C864.793 169.212 863.625 168.489 862.343 168.036C861.062 167.583 859.698 167.412 858.345 167.535H850.057Z" fill="white"/>
<path d="M950.264 213H1087.89L977.597 102.227C962.948 87.3936 943.019 78.969 922.173 78.7969H899.104L900.817 83.2995L908.467 103.223L950.264 213Z" fill="url(#paint0_linear_503_329)"/>
<path d="M908.467 103.342C923.528 129.083 963.094 131.793 967.397 171.838C967.478 172.636 967.825 173.384 968.381 173.962C968.937 174.54 969.671 174.914 970.465 175.026C994.003 178.717 1016.16 188.512 1034.73 203.437V203.437C1034.88 203.469 1035.03 203.469 1035.17 203.437C1035.31 203.434 1035.44 203.391 1035.56 203.315C1035.67 203.238 1035.76 203.131 1035.81 203.005C1035.87 202.879 1035.89 202.74 1035.86 202.605C1035.84 202.47 1035.78 202.343 1035.69 202.241C1022.19 188.075 1005.82 176.961 987.678 169.647L982.099 167.376C980.658 166.799 979.427 165.795 978.573 164.499C977.718 163.202 977.28 161.676 977.318 160.124C977.637 148.17 1005.93 150.6 1008.8 144.823L1009.27 143.866C1003.37 138.799 996.414 135.098 988.913 133.028C988.826 134.549 989.293 136.049 990.228 137.252C991.901 140.001 988.395 144.344 983.255 139.642L982.817 139.244C944.606 104.259 915.958 122.389 900.817 83.1003L908.467 103.342Z" fill="white"/>
<path d="M1000.35 143.388C998.293 143.352 996.282 142.787 994.509 141.747C992.737 140.707 991.262 139.227 990.228 137.451C990.462 137.904 990.575 138.411 990.555 138.921C990.535 139.431 990.384 139.927 990.115 140.361C989.845 140.794 989.468 141.151 989.02 141.395C988.572 141.639 988.068 141.763 987.558 141.754V151.318C991.543 150.122 996.404 149.365 1000.35 148.568V143.388Z" fill="url(#paint1_linear_503_329)"/>
<path d="M975.206 175.863C996.999 180.066 1017.43 189.532 1034.73 203.437C994.73 169.248 976.481 175.465 975.206 175.863Z" fill="url(#paint2_linear_503_329)"/>
<path d="M916.516 105.135C909.181 99.6261 903.703 92.0076 900.817 83.2996L908.467 103.223C923.528 128.964 963.054 131.673 967.397 171.679C963.014 120.755 940.621 128.366 916.516 105.135Z" fill="url(#paint3_linear_503_329)"/>
<path d="M472.107 78V213" stroke="white" stroke-width="4" stroke-miterlimit="10" stroke-linecap="round"/>
<path d="M0 192.489V192.236C0 178.879 10.1442 172.011 25.2661 172.011C31.1888 172.011 37.0485 173.208 40.7659 174.531V173.46C40.7659 166.781 36.6074 163.001 27.9124 163.001C21.1076 163.001 15.8779 164.324 10.2072 166.592L5.54467 150.651C12.7906 147.69 20.5405 145.674 31.6298 145.674C43.1602 145.674 51.0362 148.383 56.1398 153.55C60.9914 158.338 63.0706 164.954 63.0706 174.027V211.076H40.7029V204.397C36.2924 209.249 30.2437 212.462 21.8006 212.462C9.38814 212.399 0 205.342 0 192.489ZM40.955 187.637V184.676C38.6867 183.73 35.4733 183.037 32.1339 183.037C25.5811 183.037 21.8006 186.251 21.8006 191.039V191.291C21.8006 195.702 25.14 198.285 29.8026 198.285C36.2924 198.222 40.955 194.064 40.955 187.637Z" fill="white"/>
<path d="M42.6561 45.6806H9.64014V18.9653H106.168V45.6806H73.1518V139.94H42.6561V45.6806Z" fill="white"/>
<path d="M81.0908 52.6745H110.956V69.8126C115.808 58.1562 123.684 50.6583 137.861 51.2883V82.7291H135.34C119.778 82.7291 110.956 91.6762 110.956 111.335V139.94H81.0908V52.6745Z" fill="white"/>
<path d="M180.706 52.6744H210.571V64.0158C216.368 56.9589 223.614 50.7842 236.342 50.7842C256.63 50.7842 274.083 67.6072 274.083 94.8265V95.1416C274.083 122.802 256.63 139.625 236.531 139.625C223.614 139.625 216.116 133.828 210.571 127.338V162.875H180.706V52.6744ZM244.659 95.2676V94.9525C244.659 83.8002 236.972 75.7982 227.205 75.7982C217.628 75.7982 209.878 83.8002 209.878 94.9525V95.2676C209.878 106.609 217.565 114.611 227.205 114.611C236.972 114.611 244.659 106.735 244.659 95.2676Z" fill="white"/>
<path d="M143.216 23.0608H174.594V45.2395H143.216V23.0608ZM143.846 53.0524H173.964V139.94H143.846V53.0524Z" fill="white"/>
<path d="M282.841 171.128C268.791 171.128 258.961 173.712 249.762 177.492L255.685 197.718C262.931 194.819 269.61 193.181 278.179 193.181C289.205 193.181 294.498 198.033 294.498 206.476V207.862C289.835 206.224 282.4 204.711 274.839 204.711C262.364 204.711 252.598 208.429 247.242 215.738C247.242 215.612 247.242 215.423 247.242 215.297C247.242 191.291 234.262 170.561 206.035 170.561C190.283 170.561 177.556 178.626 170.625 190.787C166.34 165.521 145.359 148.32 111.839 148.32H71.0726V254.046H111.271C138.428 254.046 157.519 242.453 166.214 224.748C170.751 243.839 187.007 256 208.681 256C225 256 236.342 249.384 244.155 239.366L228.277 226.197C222.354 231.931 216.935 234.514 210.13 234.514C201.246 234.514 194.757 229.977 192.488 221.093H244.407C243.398 223.866 242.894 226.89 242.894 230.293V230.608C242.894 246.927 254.803 255.811 270.366 255.811C281.077 255.811 288.827 251.715 294.372 245.54V253.983H322.788V207.043C322.788 195.575 320.205 187.132 314.03 181.084C307.477 174.594 297.459 171.128 282.841 171.128ZM141.389 201.309C141.389 218.384 129.733 228.024 112.217 228.024H100.308V174.279H112.217C129.733 174.279 141.389 184.108 141.389 200.994V201.309ZM191.984 206.476C193.496 197.592 198.663 191.669 206.161 191.669C214.037 191.669 219.267 197.403 220.338 206.476H191.984ZM294.75 224.433C294.75 232.561 288.89 237.853 280.573 237.853C274.713 237.853 270.429 234.514 270.429 228.969V228.654C270.429 222.606 275.28 218.51 283.597 218.51C287.819 218.51 291.914 219.392 294.75 220.652V224.433Z" fill="white"/>
<path d="M358.261 143.783H329.593V254.047H358.261V143.783Z" fill="white"/>
<path d="M297.473 154.996L295.457 154.492L291.802 153.358L295.142 140.945L296.465 137.354L297.221 134.708L297.914 131.747L298.67 127.966L299.489 124.186L300.308 120.342L301.379 116.436L303.08 114.168L304.026 111.9L304.53 109.442L304.908 106.922L305.286 104.276L305.979 101.629L307.176 99.0462L308.877 97.345L308.562 95.0138L309.003 92.4305L309.822 90.0363L310.893 87.8941L311.964 85.7518L312.847 83.7356L313.477 81.7194V79.5142L315.745 76.9309L317.068 74.9147L318.076 72.5835L319.021 70.1262L319.903 67.606L321.1 65.0857L322.739 62.6915L324.566 61.0533L324.629 59.6041L325.322 58.029L326.141 56.3908L327.149 55.0677L328.031 53.6815L329.354 51.6653L329.858 50.5942L329.354 50.4682L326.33 52.5474L325.7 51.6023L325.07 51.3503L324.188 51.4763L323.054 51.9804L321.731 52.7364L320.533 53.6815L319.273 54.5006L317.194 55.7607L315.682 52.7994L315.493 52.9255L314.485 53.6185L313.603 54.3746L312.658 55.2567L311.712 56.2018L310.956 57.0839L307.995 60.2342L307.302 57.966V57.5879L307.239 57.2729V57.1469L307.176 57.0839L306.987 57.1469L306.294 57.6509L305.601 58.344L305.097 59.3521L304.593 60.3602L304.215 61.5573L303.9 62.8175L303.207 66.0308L300.371 63.0695L299.867 64.2666L299.363 65.6528L298.796 68.6771L298.481 71.5124L298.166 74.9777L295.961 72.9615L295.709 73.2765L295.079 74.4737L294.701 75.7968L294.512 77.435L294.323 79.0101L294.386 82.3495L294.449 86.2559L291.928 84.3027L291.361 83.4836L291.046 82.6015L290.983 81.9714L290.857 81.4044L290.731 80.9003L290.605 80.5853L289.345 80.5223L288.022 79.6402L287.455 78.128L287.392 76.7419V75.2928L287.455 73.9696L287.266 72.8985L287.14 72.6465L286.888 72.7095L286.51 72.8355L285.943 72.9615L284.367 72.7725L284.998 69.6222L285.754 67.795L286.636 66.0308L287.707 64.5186L288.715 63.0065L289.66 61.5573L290.416 60.1712H290.353V60.0452L288.715 59.1631L289.282 57.8399L290.101 56.6428L291.172 55.4457L292.306 54.5006L293.251 53.5555L294.386 52.5474L295.331 51.6023L292.684 49.9011L295.583 48.641L296.591 48.137L297.599 47.6959L298.67 47.1919L299.741 46.6248L300.875 46.2468L302.009 45.9317L302.828 45.8057L304.971 43.5375L307.869 42.2143L311.019 41.6473L317.131 41.5843L319.966 41.3323L322.487 40.5762L324.377 40.0721H324.314L323.747 39.9461L321.289 39.6941L320.407 38.1189L319.588 37.5519L318.517 37.2998L317.068 37.2368L315.43 37.3628L313.792 37.6779L312.027 37.9299L309.57 38.1819L309.192 35.3466H309.003L307.995 35.4096L307.113 35.5987L306.042 35.8507L304.971 36.1657L303.963 36.4177L302.891 36.7328L300.812 37.2368L300.119 35.4726L299.867 35.2836L299.237 35.2206L298.229 35.4096L297.032 35.7247L295.772 36.2917L292.18 37.6779L291.802 34.6536L291.172 34.8426L290.29 35.0946L289.471 35.4726L288.526 35.7877L287.77 36.2287L286.888 36.7328L285.439 37.7409L283.674 36.0397L282.792 35.8507L281.658 36.1657L280.272 37.0478L278.697 38.1819L277.122 39.5051L275.42 40.7652L271.955 42.7184L272.459 38.434L265.654 41.8363L265.969 38.812L266.474 37.8669L266.978 36.9848L267.545 36.3547L267.923 35.7877L268.238 35.3466V35.2836L267.923 35.2206H267.545L267.041 35.4096L266.474 35.5357L265.843 35.7247L265.15 35.8507L262 35.9767L264.583 32.8894L266.032 31.9443L267.545 31.1252L268.931 30.3691L270.065 29.487L270.758 28.794L270.947 28.1009L270.506 26.0217L273.278 25.2026L275.231 24.7615L277.122 24.4465L279.201 24.2575L281.154 24.1945L283.17 24.2575L285.25 24.4465L286.51 24.6355L287.392 22.2413H290.794L293.314 22.6193L295.709 23.2494L297.914 24.0685L300.056 24.8876L302.135 25.5806L304.152 26.0847L304.782 26.1477L304.026 23.4384L308.121 23.9425L310.515 24.7615L312.658 25.7697L314.737 26.9038L316.69 27.9749L318.643 28.92L320.722 29.55L323.243 29.8651L324.755 30.4951L326.141 31.4402L328.85 33.2674L329.921 33.7715L330.804 33.9605L332.379 34.2125L332.883 34.0865L332.316 33.7715L330.614 32.2593L329.543 31.5032L328.598 30.8102L328.157 29.9911L328.283 29.361L328.535 29.172L328.472 29.046L327.779 28.4789L326.897 27.9749L326.078 27.5338L325.196 27.0298L324.314 26.6517L323.369 26.1477L320.974 24.9506L322.361 23.8164L322.172 23.5014L321.541 22.8084L320.596 22.2413L319.399 21.8002L318.013 21.4222L316.627 21.1702L315.115 20.7921L312.595 19.91L313.855 17.3268L311.523 17.6418L309.066 17.3898L306.735 16.6337L304.719 15.8146L302.765 14.9325L300.875 14.4285H298.985L296.906 15.1846L295.772 13.3574L296.906 12.2233H295.961L294.638 12.4123L293.188 12.8533L291.676 13.3574L290.101 13.7354L288.4 13.9244L285.313 13.4204L286.762 11.2152H286.132L285.061 11.2782L283.989 11.4672L282.729 11.7822L281.532 12.0972L280.335 12.4123L277.248 13.2314L278.193 10.144L278.004 10.018L276.681 9.703L275.42 9.45097L272.396 9.13594H270.884L269.372 9.19895L264.394 9.51398L268.742 6.23764L270.443 5.67058L272.144 5.35555L273.782 5.22954L275.105 4.91451L276.114 4.53647L276.744 3.84339L277.5 2.01621L279.642 1.51216L281.406 1.63817L283.233 1.9532L284.872 2.26823L286.321 2.39425L287.392 2.20523L288.022 1.76418L288.967 0L292.243 0.315032L294.701 0.882092L297.032 1.57516L299.363 2.45725L301.442 3.21333L303.648 3.9064L305.664 4.47346L306.357 4.59948L306.042 2.64628L308.499 3.52836L309.255 3.78039L309.948 3.96941L310.83 4.28444L311.649 4.53647L312.469 4.97751L313.288 5.48157L313.603 5.7966L315.241 5.41856L317.383 5.67058L319.336 6.48967L321.1 7.68679L324.314 10.144L325.763 11.0891L326.645 11.4672L327.905 9.63999L329.984 10.3961L331.119 11.4672L332.001 12.6013L332.883 13.7984L333.576 14.6805L334.08 15.0586H334.395L336.033 14.1765L338.301 16.6337L339.624 18.6499L340.57 20.6661L341.389 22.7453L342.019 24.8246L342.712 26.9038L343.279 29.8021L343.468 30.1801V30.1171L344.539 27.5968L345.358 26.0217L346.177 24.3205L347.059 22.5563L348.13 20.9182L349.454 19.343L351.722 17.6418L353.675 18.9019L354.242 18.2719L355.565 17.0118L356.888 15.8146L358.211 14.8065L359.661 13.8614L361.173 13.1054L362.874 12.4123L367.095 11.1522L365.457 14.2395L364.89 15.1216L364.197 15.7516L363.693 16.3817L363.504 16.6967L365.331 15.9406L367.221 15.1846L369.238 14.5545L371.128 13.9244L373.144 13.4834L375.223 13.0423L377.87 12.7903L379.13 14.1765L380.012 14.6175L381.083 14.8065H382.343L383.729 14.6805L385.367 14.6175L387.069 14.7435L389.526 15.5626V17.3898L389.904 18.0199L390.849 18.6499L392.235 19.28L393.684 19.91L395.386 20.6661L396.898 21.6112L399.67 24.7615L395.764 24.5725L394.251 24.3835L392.802 24.1315L391.416 23.9425L390.219 23.8164L389.211 23.9425L388.455 24.2575L389.337 24.6355L389.967 24.9506L390.66 25.6436L391.038 26.6517L390.786 28.983L387.888 28.1009L386.313 27.4708L384.737 26.7778L383.288 26.1477L381.839 25.6436L380.579 25.3286H379.382L382.154 30.4321L368.986 26.6517L369.994 28.857L365.205 28.1639L363 28.2269L361.236 29.235L359.409 30.3061L357.392 31.5032L356.195 32.4483L356.384 32.3853L359.346 32.5113L361.488 32.1963L363.693 31.9443L365.835 31.7553L368.986 31.6923L369.427 32.5113L369.994 33.0154L371.065 33.3304L372.451 33.5825L374.089 33.6455L375.853 33.9605L377.492 34.5275L379.319 35.9137L379.067 37.6149L379.382 38.1189L380.075 38.749L381.209 39.4421L382.532 40.0721L383.981 40.9542L385.304 42.0883L387.258 45.4907L384.17 45.1126L383.729 44.9866H383.666L384.044 45.5537L387.069 49.5231L387.762 50.6572L388.77 52.5474L387.447 53.8075L387.258 54.3746L387.321 55.1307L387.573 56.1388L388.077 57.2729L388.518 58.596L388.896 59.9822L389.022 61.4313L386.943 61.9984L386.313 60.9273L385.619 60.0452L384.674 59.1001L383.855 58.344L382.784 57.5249L381.776 56.7688L380.768 56.1388L380.264 55.8868L380.138 55.9498L379.949 56.2018L380.579 60.1712L377.114 56.2648L376.231 55.0677L375.349 53.7445L374.53 52.3584L373.774 50.9092L373.081 49.5231L372.325 48.137L371.632 46.9398L371.506 46.7508L371.38 46.8138L371.191 46.8768L371.065 46.9398L370.939 47.1288L370.372 49.019L368.167 46.8768L367.347 45.7427L366.087 43.6005L365.457 42.6554L364.827 41.9623L364.071 41.3953L363.63 41.2692L363.126 41.8363L361.866 42.2143L360.228 41.8363L358.842 41.2692L357.329 40.5762L353.927 39.7571H353.549L356.951 42.6554L357.833 43.1594L358.968 43.7895L359.913 44.6086L360.543 45.4277L360.669 46.1838L361.047 46.8768L361.677 47.4439L362.874 48.2L364.26 48.893L365.772 49.7121L367.284 50.7202L370.435 54.1226L367.536 53.8075L368.041 54.6266L369.049 55.5717L370.372 56.5798L371.695 57.5879L373.207 58.8481L374.467 60.2972L376.42 63.8886L373.081 63.5105L373.27 63.8256L373.9 64.8967L374.656 65.9678L375.286 67.1019L375.79 68.299L376.042 69.6222L375.349 72.4575L373.648 71.1973L373.837 71.5754L374.467 73.4656L374.782 75.3558L375.034 77.435L375.097 79.4512L375.223 81.3414L375.286 83.3576L375.853 87.39L372.703 85.6258L370.246 95.0138L368.104 94.8878L366.843 85.0588L365.646 84.9957L364.134 83.9876L363.504 82.3495L363.441 80.6483L363.567 78.8841L363.504 77.372L363.252 76.1748L363.126 75.9858L359.787 77.435L359.535 74.5997L359.472 71.9534V70.6303L359.346 69.3701L359.283 68.173L359.094 67.4169L356.321 69.6852L355.25 66.8499L355.124 65.4007L355.061 63.8886L354.998 62.5654L354.872 61.3053L354.62 60.3602L354.116 59.6041L353.927 59.4781L350.021 64.2666L350.462 59.4151L350.336 58.218L350.021 57.0209L349.58 55.9498L348.823 54.8156L348.067 53.8075L347.248 52.9884L344.35 56.2018L343.216 53.8075L342.901 52.8624L342.586 51.9804L342.334 51.1613L342.019 50.4052L341.704 49.9011L341.452 49.6491L335.025 59.5411L328.913 71.0083L323.621 82.8535L319.21 95.2658L315.682 108.056L313.036 121.224L311.208 134.771L308.625 154.933L305.853 155.311L303.774 155.5L301.694 155.437L299.552 155.311L297.473 154.996Z" fill="white"/>
<defs>
<linearGradient id="paint0_linear_503_329" x1="1018.76" y1="212.522" x2="926.908" y2="78.403" gradientUnits="userSpaceOnUse">
<stop stop-color="#BE0000"/>
<stop offset="0.39" stop-color="#DE0000"/>
<stop offset="0.77" stop-color="#F60000"/>
<stop offset="1" stop-color="#FF0000"/>
</linearGradient>
<linearGradient id="paint1_linear_503_329" x1="993.375" y1="151.995" x2="994.611" y2="137.849" gradientUnits="userSpaceOnUse">
<stop offset="0.65" stop-color="white" stop-opacity="0"/>
<stop offset="0.69" stop-color="#EDEDED" stop-opacity="0.23"/>
<stop offset="0.76" stop-color="#D7D7D7" stop-opacity="0.5"/>
<stop offset="0.81" stop-color="#C6C6C6" stop-opacity="0.72"/>
<stop offset="0.87" stop-color="#B9B9B9" stop-opacity="0.87"/>
<stop offset="0.91" stop-color="#B2B2B2" stop-opacity="0.97"/>
<stop offset="0.95" stop-color="#AFAFAF"/>
</linearGradient>
<linearGradient id="paint2_linear_503_329" x1="975.206" y1="189.331" x2="1034.73" y2="189.331" gradientUnits="userSpaceOnUse">
<stop stop-color="white" stop-opacity="0"/>
<stop offset="0.07" stop-color="#F3F3F3" stop-opacity="0.15"/>
<stop offset="0.21" stop-color="#DEDEDE" stop-opacity="0.41"/>
<stop offset="0.35" stop-color="#CDCDCD" stop-opacity="0.62"/>
<stop offset="0.49" stop-color="#C0C0C0" stop-opacity="0.79"/>
<stop offset="0.63" stop-color="#B7B7B7" stop-opacity="0.91"/>
<stop offset="0.77" stop-color="#B1B1B1" stop-opacity="0.98"/>
<stop offset="0.9" stop-color="#AFAFAF"/>
</linearGradient>
<linearGradient id="paint3_linear_503_329" x1="900.817" y1="127.569" x2="967.397" y2="127.569" gradientUnits="userSpaceOnUse">
<stop offset="0.25" stop-color="white" stop-opacity="0"/>
<stop offset="0.36" stop-color="#F7F7F7" stop-opacity="0.11"/>
<stop offset="0.58" stop-color="#E1E1E1" stop-opacity="0.38"/>
<stop offset="0.88" stop-color="#BEBEBE" stop-opacity="0.82"/>
<stop offset="1" stop-color="#AFAFAF"/>
</linearGradient>
</defs>
</svg>
