<svg width="3164" height="1034" viewBox="0 0 3164 1034" fill="none" xmlns="http://www.w3.org/2000/svg">
<path d="M1037.15 485.72C1048.02 485.72 1055.98 482.658 1061.03 476.534C1066.08 470.411 1068.61 463.139 1068.61 454.719V438.644C1068.61 428.693 1065.4 421.651 1058.97 417.517C1052.54 413.231 1045.26 411.088 1037.15 411.088H1019.24V485.72H1037.15ZM1065.4 330.485C1065.4 321.299 1062.87 314.946 1057.82 311.425C1052.77 307.75 1045.49 305.913 1036 305.913H1019.24V372.279H1037.84C1046.72 372.279 1053.53 368.834 1058.28 361.945C1063.02 354.903 1065.4 346.33 1065.4 336.226V330.485ZM1052.77 532.796C1040.82 532.796 1025.36 532.49 1006.38 531.877C987.395 531.265 973.77 530.882 965.503 530.729H943.458V261.593H983.185C992.83 261.593 1003.85 261.287 1016.25 260.675C1028.65 259.909 1037.61 259.526 1043.12 259.526C1061.03 259.526 1076.11 260.981 1088.36 263.89C1100.76 266.798 1110.48 271.161 1117.52 276.979C1124.57 282.796 1129.54 289.532 1132.45 297.187C1135.51 304.842 1137.04 313.951 1137.04 324.514C1137.04 340.742 1133.29 354.673 1125.79 366.308C1118.29 377.943 1107.42 385.215 1093.18 388.124C1129.31 391.339 1147.38 412.542 1147.38 451.733C1147.38 463.522 1145.62 474.238 1142.09 483.883C1138.57 493.375 1133.14 501.871 1125.79 509.373C1118.59 516.721 1108.8 522.462 1096.4 526.596C1084 530.729 1069.45 532.796 1052.77 532.796ZM1168.83 530.729V261.593H1244.84V469.186H1313.28V530.729H1168.83ZM1466.38 530.729L1456.04 487.787H1390.83L1382.1 530.729H1314.59L1384.63 280.194L1379.12 261.593H1473.96L1550.65 530.729H1466.38ZM1420.45 340.589L1400.24 440.941H1444.79L1420.45 340.589ZM1729.65 511.669L1727.58 514.195C1726.05 515.726 1723.44 517.716 1719.77 520.166C1716.25 522.462 1711.96 524.835 1706.91 527.284C1702.01 529.581 1695.43 531.494 1687.16 533.025C1678.9 534.709 1670.02 535.551 1660.52 535.551C1640.47 535.551 1623.32 532.26 1609.09 525.677C1594.85 518.941 1583.67 509.22 1575.56 496.513C1567.6 483.653 1561.86 469.186 1558.34 453.111C1554.81 436.884 1553.05 418.13 1553.05 396.85C1553.05 374.192 1554.81 354.673 1558.34 338.292C1561.86 321.758 1567.67 307.291 1575.79 294.891C1584.05 282.337 1595.38 272.922 1609.77 266.645C1624.16 260.368 1641.69 257.23 1662.36 257.23C1671.85 257.23 1680.73 258.072 1689 259.756C1697.42 261.44 1704 263.354 1708.75 265.497C1713.65 267.64 1718.01 270.09 1721.84 272.845C1725.82 275.601 1728.27 277.515 1729.19 278.586C1730.26 279.658 1731.02 280.5 1731.48 281.112L1728.04 333.929H1693.13L1681.19 306.602C1678.44 305.837 1676.14 305.454 1674.3 305.454C1664.05 305.454 1656.16 307.827 1650.65 312.573C1645.14 317.166 1640.93 326.275 1638.02 339.9C1635.11 353.372 1633.66 372.815 1633.66 398.228C1633.66 413.384 1634.57 426.626 1636.41 437.955C1638.4 449.284 1640.78 458.01 1643.53 464.134C1646.29 470.105 1649.58 474.927 1653.41 478.601C1657.23 482.275 1660.68 484.648 1663.74 485.72C1666.8 486.638 1670.09 487.098 1673.61 487.098C1681.42 487.098 1689.61 486.179 1698.18 484.342C1706.76 482.352 1713.8 479.367 1719.31 475.386L1729.65 511.669ZM1880.31 530.729C1878.47 528.433 1874.49 519.477 1868.37 503.861C1862.4 488.093 1855.36 470.334 1847.24 450.585C1839.28 430.683 1832.24 415.604 1826.12 405.347V530.729H1750.11V261.593H1826.12V390.42L1883.3 261.593H1959.77L1891.33 387.894C1895.77 390.956 1901.67 399.299 1909.02 412.925C1916.36 426.55 1923.25 440.864 1929.68 455.867C1936.11 470.87 1942.77 485.95 1949.66 501.106C1956.55 516.109 1961.6 525.983 1964.82 530.729H1880.31Z" fill="white"/>
<path d="M2143.09 535.551C2131.3 535.551 2120.28 534.48 2110.02 532.336C2099.91 530.346 2091.42 527.667 2084.53 524.299C2077.64 520.931 2071.97 517.716 2067.54 514.654C2063.25 511.592 2059.65 508.531 2056.74 505.469L2062.48 449.667C2068.76 458.087 2077.18 465.435 2087.74 471.712C2098.31 477.836 2109.71 480.898 2121.96 480.898C2134.21 480.898 2143.01 479.596 2148.37 476.994C2153.88 474.391 2156.63 469.645 2156.63 462.756C2156.63 455.408 2153.5 449.131 2147.22 443.926C2141.1 438.721 2130.46 432.444 2115.3 425.095C2109.79 422.34 2105.12 419.89 2101.29 417.747C2097.46 415.451 2092.34 411.776 2085.91 406.724C2079.63 401.519 2074.5 396.161 2070.52 390.65C2066.54 384.985 2063.02 377.79 2059.96 369.064C2056.9 360.184 2055.36 350.693 2055.36 340.589C2055.36 285.935 2086.21 258.608 2147.91 258.608C2157.71 258.608 2166.89 259.68 2175.47 261.823C2184.19 263.813 2191 266.033 2195.9 268.482C2200.8 270.932 2205.24 273.841 2209.22 277.209C2213.36 280.423 2215.96 282.72 2217.03 284.098C2218.1 285.322 2218.87 286.318 2219.33 287.083L2207.84 331.403C2201.87 324.361 2194.37 319.156 2185.34 315.788C2176.46 312.267 2167.96 310.506 2159.85 310.506C2140.25 310.506 2130.46 316.63 2130.46 328.877C2130.46 332.092 2131.07 335.001 2132.29 337.603C2133.52 340.206 2135.51 342.579 2138.26 344.722C2141.02 346.865 2143.55 348.703 2145.84 350.233C2148.29 351.764 2151.58 353.678 2155.72 355.974C2160 358.118 2163.22 359.878 2165.36 361.256C2187.71 370.748 2204.09 382 2214.5 395.013C2225.07 408.026 2230.35 423.871 2230.35 442.548C2230.35 472.86 2222.85 495.977 2207.84 511.899C2192.99 527.667 2171.41 535.551 2143.09 535.551ZM2330.69 530.729H2254.68V261.593H2284.99C2293.11 261.593 2305.35 261.287 2321.74 260.675C2338.12 259.909 2351.59 259.526 2362.15 259.526C2391.85 259.526 2414.36 267.411 2429.67 283.179C2444.97 298.948 2452.63 322.6 2452.63 354.137C2452.63 373.121 2450.1 390.42 2445.05 406.036C2440.15 421.498 2433.49 434.204 2425.07 444.155C2416.65 454.106 2407.08 461.761 2396.37 467.119C2385.65 472.477 2374.32 475.157 2362.38 475.157C2360.85 475.157 2359.24 475.157 2357.56 475.157C2356.03 475.157 2354.57 475.157 2353.2 475.157C2351.97 475.003 2350.44 474.927 2348.6 474.927C2346.92 474.774 2345.54 474.697 2344.47 474.697C2343.55 474.544 2342.17 474.468 2340.34 474.468C2338.65 474.315 2337.5 474.238 2336.89 474.238C2336.28 474.238 2335.13 474.161 2333.45 474.008C2331.76 473.855 2330.84 473.779 2330.69 473.779V530.729ZM2377.31 344.033C2377.31 332.704 2374.25 323.519 2368.12 316.477C2362 309.434 2353.2 305.913 2341.71 305.913H2330.69V425.325H2339.19C2351.28 425.325 2360.62 421.268 2367.2 413.154C2373.94 405.04 2377.31 393.329 2377.31 378.02V344.033ZM2470.66 530.729V261.593H2548.96V530.729H2470.66ZM2653.33 530.729H2580.3V283.179L2569.05 261.593H2653.56L2695.81 348.856L2736.23 435.888L2724.97 333.7V261.593H2798.23V530.729H2728.19L2673.53 424.407L2639.78 357.812L2653.33 445.993V530.729ZM2992.04 530.729H2829.22V261.593H2988.59L2984 315.788L2905.24 313.491V365.39H2967.24V419.125L2905.24 414.532V475.616L2992.04 473.319V530.729ZM3012.89 530.729V261.593H3088.9V469.186H3157.33V530.729H3012.89Z" fill="white"/>
<path d="M981.139 767.661C969.657 767.661 960.4 764.001 953.367 756.681C946.406 749.362 942.926 739.745 942.926 727.833V722.451H959.072V727.833C959.072 734.937 961.082 740.678 965.1 745.056C969.119 749.362 974.465 751.514 981.139 751.514C987.813 751.514 993.159 749.362 997.178 745.056C1001.2 740.678 1003.21 734.937 1003.21 727.833V715.777C1003.21 711.83 1003.06 708.708 1002.78 706.412C1002.49 704.044 1001.7 702.142 1000.41 700.707C999.116 699.272 996.963 697.944 993.949 696.724C990.935 695.433 986.665 693.89 981.139 692.096C971.595 688.938 964.203 686.319 958.965 684.238C953.726 682.157 949.959 679.932 947.662 677.564C945.438 675.196 944.074 672.074 943.572 668.199C943.141 664.252 942.926 658.942 942.926 652.268V639.135C942.926 627.151 946.406 617.535 953.367 610.287C960.4 602.967 969.657 599.307 981.139 599.307C992.693 599.307 1001.95 602.967 1008.91 610.287C1015.87 617.535 1019.35 627.151 1019.35 639.135V644.517H1003.21V639.135C1003.21 632.031 1001.2 626.326 997.178 622.02C993.159 617.643 987.813 615.454 981.139 615.454C974.465 615.454 969.119 617.643 965.1 622.02C961.082 626.326 959.072 632.031 959.072 639.135V652.268C959.072 656.215 959.18 659.372 959.395 661.74C959.682 664.037 960.472 665.903 961.763 667.338C963.055 668.701 965.208 670.029 968.222 671.321C971.308 672.612 975.614 674.155 981.139 675.949C990.684 679.035 998.075 681.654 1003.31 683.807C1008.55 685.888 1012.28 688.113 1014.51 690.481C1016.8 692.849 1018.17 695.971 1018.6 699.846C1019.1 703.721 1019.35 709.031 1019.35 715.777V727.833C1019.35 739.745 1015.87 749.362 1008.91 756.681C1001.95 764.001 992.693 767.661 981.139 767.661ZM1080.64 766.8C1073.32 766.8 1066.9 765.221 1061.37 762.063C1055.85 758.906 1051.5 754.493 1048.35 748.823C1045.19 743.082 1043.61 736.409 1043.61 728.802V682.623C1043.61 675.16 1045.19 668.594 1048.35 662.924C1051.5 657.183 1055.85 652.734 1061.37 649.577C1066.9 646.347 1073.32 644.733 1080.64 644.733C1091.62 644.733 1100.48 648.213 1107.23 655.174C1113.97 662.135 1117.35 671.285 1117.35 682.623V728.802C1117.35 740.14 1113.97 749.326 1107.23 756.358C1100.48 763.319 1091.62 766.8 1080.64 766.8ZM1080.64 751.192C1087.17 751.192 1092.3 749.182 1096.03 745.164C1099.84 741.145 1101.74 735.87 1101.74 729.34V682.085C1101.74 675.554 1099.84 670.316 1096.03 666.369C1092.3 662.35 1087.17 660.341 1080.64 660.341C1074.11 660.341 1068.91 662.35 1065.03 666.369C1061.16 670.316 1059.22 675.554 1059.22 682.085V729.34C1059.22 735.87 1061.16 741.145 1065.03 745.164C1068.91 749.182 1074.11 751.192 1080.64 751.192ZM1152.14 764.216V662.171H1130.51V647.424H1152.14V639.674C1152.14 631.995 1153.65 625.213 1156.66 619.329C1159.75 613.445 1164.05 608.852 1169.58 605.551C1175.18 602.25 1181.71 600.599 1189.17 600.599H1197.35V616.207H1189.17C1182.64 616.207 1177.44 618.36 1173.56 622.666C1169.69 626.972 1167.75 632.641 1167.75 639.674V647.424H1197.35V662.171H1167.75V764.216H1152.14ZM1257.59 765.508C1246.46 765.508 1237.53 761.992 1230.78 754.959C1224.11 747.855 1220.77 738.346 1220.77 726.434V661.956H1199.78V647.209H1220.77V617.822H1236.38V647.209H1265.44V661.956H1236.38V726.434C1236.38 733.538 1238.32 739.243 1242.19 743.549C1246.07 747.783 1251.2 749.9 1257.59 749.9H1265.44V765.508H1257.59ZM1294.51 764.216L1275.89 647.424H1292.15L1305.17 747.101L1302.8 746.886L1321.96 647.424H1336.71L1355.87 746.886L1353.61 747.101L1366.42 647.424H1382.78L1364.16 764.216H1346.51L1327.99 674.227H1331.01L1312.28 764.216H1294.51ZM1430.74 766.8C1419.97 766.8 1411.65 763.822 1405.77 757.865C1399.88 751.909 1396.94 744.374 1396.94 735.26C1396.94 729.591 1397.98 724.891 1400.06 721.159C1402.14 717.356 1404.8 714.27 1408.03 711.902C1411.33 709.534 1414.81 707.632 1418.47 706.197C1422.84 704.403 1427.29 703.003 1431.81 701.999C1436.41 700.922 1440.64 699.81 1444.52 698.662C1448.39 697.442 1451.51 695.791 1453.88 693.71C1456.25 691.629 1457.43 688.687 1457.43 684.884V682.085C1457.43 675.554 1455.46 670.316 1451.51 666.369C1447.64 662.35 1442.47 660.341 1436.01 660.341C1429.48 660.341 1424.32 662.35 1420.51 666.369C1416.78 670.316 1414.91 675.554 1414.91 682.085V685.314H1399.31V682.623C1399.31 671.285 1402.68 662.135 1409.42 655.174C1416.17 648.213 1425.03 644.733 1436.01 644.733C1443.26 644.733 1449.65 646.347 1455.17 649.577C1460.77 652.734 1465.15 657.148 1468.31 662.817C1471.46 668.486 1473.04 675.088 1473.04 682.623V764.216H1457.43V748.07L1460.02 751.514C1457.29 756.394 1453.45 760.162 1448.5 762.817C1443.55 765.472 1437.63 766.8 1430.74 766.8ZM1433.97 751.945C1441.29 751.945 1447.03 749.9 1451.19 745.809C1455.35 741.647 1457.43 735.727 1457.43 728.048V707.381C1453.06 710.108 1448.18 711.974 1442.79 712.978C1437.41 713.911 1432.28 715.203 1427.4 716.853C1423.1 718.289 1419.54 720.334 1416.74 722.989C1413.95 725.573 1412.55 729.268 1412.55 734.076C1412.55 739.315 1414.41 743.621 1418.14 746.993C1421.88 750.294 1427.15 751.945 1433.97 751.945ZM1501.8 764.216V647.424H1517.41V664.216L1514.72 660.987C1517.45 656.179 1521.07 652.483 1525.59 649.9C1530.11 647.316 1535.35 646.024 1541.31 646.024H1546.37V661.633H1538.08C1531.84 661.633 1526.81 663.57 1523.01 667.445C1519.28 671.321 1517.41 676.523 1517.41 683.054V764.216H1501.8ZM1596.15 766.8C1588.83 766.8 1582.41 765.221 1576.88 762.063C1571.35 758.906 1567.01 754.493 1563.86 748.823C1560.7 743.082 1559.12 736.409 1559.12 728.802V682.623C1559.12 675.16 1560.7 668.594 1563.86 662.924C1567.01 657.183 1571.35 652.734 1576.88 649.577C1582.41 646.347 1588.83 644.733 1596.15 644.733C1607.13 644.733 1615.99 648.213 1622.74 655.174C1629.48 662.135 1632.85 671.285 1632.85 682.623V708.134H1571.61V693.064H1617.25V682.085C1617.25 675.554 1615.34 670.316 1611.54 666.369C1607.81 662.35 1602.68 660.341 1596.15 660.341C1589.62 660.341 1584.42 662.35 1580.54 666.369C1576.66 670.316 1574.73 675.554 1574.73 682.085V729.34C1574.73 735.87 1576.66 741.145 1580.54 745.164C1584.42 749.182 1589.62 751.192 1596.15 751.192C1602.68 751.192 1607.81 749.182 1611.54 745.164C1615.34 741.145 1617.25 735.87 1617.25 729.34V726.649H1632.85V728.802C1632.85 740.14 1629.48 749.326 1622.74 756.358C1615.99 763.319 1607.13 766.8 1596.15 766.8ZM1740.95 767.661C1729.46 767.661 1720.21 764.001 1713.17 756.681C1706.21 749.362 1702.73 739.745 1702.73 727.833V722.451H1718.88V727.833C1718.88 734.937 1720.89 740.678 1724.91 745.056C1728.93 749.362 1734.27 751.514 1740.95 751.514C1747.62 751.514 1752.97 749.362 1756.99 745.056C1761 740.678 1763.01 734.937 1763.01 727.833V715.777C1763.01 711.83 1762.87 708.708 1762.58 706.412C1762.3 704.044 1761.51 702.142 1760.21 700.707C1758.92 699.272 1756.77 697.944 1753.76 696.724C1750.74 695.433 1746.47 693.89 1740.95 692.096C1731.4 688.938 1724.01 686.319 1718.77 684.238C1713.53 682.157 1709.77 679.932 1707.47 677.564C1705.24 675.196 1703.88 672.074 1703.38 668.199C1702.95 664.252 1702.73 658.942 1702.73 652.268V639.135C1702.73 627.151 1706.21 617.535 1713.17 610.287C1720.21 602.967 1729.46 599.307 1740.95 599.307C1752.5 599.307 1761.76 602.967 1768.72 610.287C1775.68 617.535 1779.16 627.151 1779.16 639.135V644.517H1763.01V639.135C1763.01 632.031 1761 626.326 1756.99 622.02C1752.97 617.643 1747.62 615.454 1740.95 615.454C1734.27 615.454 1728.93 617.643 1724.91 622.02C1720.89 626.326 1718.88 632.031 1718.88 639.135V652.268C1718.88 656.215 1718.99 659.372 1719.2 661.74C1719.49 664.037 1720.28 665.903 1721.57 667.338C1722.86 668.701 1725.02 670.029 1728.03 671.321C1731.12 672.612 1735.42 674.155 1740.95 675.949C1750.49 679.035 1757.88 681.654 1763.12 683.807C1768.36 685.888 1772.09 688.113 1774.32 690.481C1776.61 692.849 1777.98 695.971 1778.41 699.846C1778.91 703.721 1779.16 709.031 1779.16 715.777V727.833C1779.16 739.745 1775.68 749.362 1768.72 756.681C1761.76 764.001 1752.5 767.661 1740.95 767.661ZM1840.45 766.8C1833.13 766.8 1826.7 765.221 1821.18 762.063C1815.65 758.906 1811.31 754.493 1808.15 748.823C1805 743.082 1803.42 736.409 1803.42 728.802V682.623C1803.42 675.16 1805 668.594 1808.15 662.924C1811.31 657.183 1815.65 652.734 1821.18 649.577C1826.7 646.347 1833.13 644.733 1840.45 644.733C1851.43 644.733 1860.29 648.213 1867.03 655.174C1873.78 662.135 1877.15 671.285 1877.15 682.623V728.802C1877.15 740.14 1873.78 749.326 1867.03 756.358C1860.29 763.319 1851.43 766.8 1840.45 766.8ZM1840.45 751.192C1846.98 751.192 1852.11 749.182 1855.84 745.164C1859.64 741.145 1861.55 735.87 1861.55 729.34V682.085C1861.55 675.554 1859.64 670.316 1855.84 666.369C1852.11 662.35 1846.98 660.341 1840.45 660.341C1833.92 660.341 1828.71 662.35 1824.84 666.369C1820.96 670.316 1819.03 675.554 1819.03 682.085V729.34C1819.03 735.87 1820.96 741.145 1824.84 745.164C1828.71 749.182 1833.92 751.192 1840.45 751.192ZM1904.41 764.216V602.752H1920.02V764.216H1904.41ZM1981.78 766.8C1975.6 766.8 1970.08 765.4 1965.2 762.602C1960.32 759.803 1956.44 755.641 1953.57 750.115C1950.7 744.518 1949.27 737.629 1949.27 729.448V647.424H1964.88V729.448C1964.88 735.978 1966.74 741.252 1970.47 745.271C1974.2 749.218 1979.12 751.192 1985.22 751.192C1991.46 751.192 1996.45 749.218 2000.18 745.271C2003.91 741.252 2005.78 735.978 2005.78 729.448V647.424H2021.39V764.216H2005.78V748.716L2008.47 752.053C2005.82 756.717 2002.23 760.341 1997.71 762.925C1993.19 765.508 1987.88 766.8 1981.78 766.8ZM2095.81 765.508C2084.69 765.508 2075.76 761.992 2069.01 754.959C2062.34 747.855 2059 738.346 2059 726.434V661.956H2038.01V647.209H2059V617.822H2074.61V647.209H2103.67V661.956H2074.61V726.434C2074.61 733.538 2076.54 739.243 2080.42 743.549C2084.3 747.783 2089.43 749.9 2095.81 749.9H2103.67V765.508H2095.81ZM2123.48 764.216V647.424H2139.09V764.216H2123.48ZM2123.48 634.399V609.211H2139.09V634.399H2123.48ZM2203.32 766.8C2196 766.8 2189.58 765.221 2184.05 762.063C2178.53 758.906 2174.19 754.493 2171.03 748.823C2167.87 743.082 2166.29 736.409 2166.29 728.802V682.623C2166.29 675.16 2167.87 668.594 2171.03 662.924C2174.19 657.183 2178.53 652.734 2184.05 649.577C2189.58 646.347 2196 644.733 2203.32 644.733C2214.3 644.733 2223.16 648.213 2229.91 655.174C2236.65 662.135 2240.03 671.285 2240.03 682.623V728.802C2240.03 740.14 2236.65 749.326 2229.91 756.358C2223.16 763.319 2214.3 766.8 2203.32 766.8ZM2203.32 751.192C2209.85 751.192 2214.98 749.182 2218.71 745.164C2222.52 741.145 2224.42 735.87 2224.42 729.34V682.085C2224.42 675.554 2222.52 670.316 2218.71 666.369C2214.98 662.35 2209.85 660.341 2203.32 660.341C2196.79 660.341 2191.59 662.35 2187.71 666.369C2183.84 670.316 2181.9 675.554 2181.9 682.085V729.34C2181.9 735.87 2183.84 741.145 2187.71 745.164C2191.59 749.182 2196.79 751.192 2203.32 751.192ZM2267.29 764.216V647.424H2282.9V663.032L2280.21 659.91C2282.93 655.031 2286.56 651.299 2291.08 648.716C2295.6 646.06 2300.87 644.733 2306.9 644.733C2316.66 644.733 2324.52 648.106 2330.47 654.851C2336.43 661.597 2339.41 670.675 2339.41 682.085V764.216H2323.8V682.085C2323.8 675.554 2321.93 670.316 2318.2 666.369C2314.54 662.35 2309.66 660.341 2303.56 660.341C2297.32 660.341 2292.3 662.35 2288.49 666.369C2284.76 670.316 2282.9 675.554 2282.9 682.085V764.216H2267.29ZM2399.84 766.8C2388.72 766.8 2379.78 763.606 2373.04 757.22C2366.36 750.761 2363.03 742.257 2363.03 731.708V727.941H2378.63V732.354C2378.63 738.023 2380.54 742.58 2384.34 746.025C2388.21 749.469 2393.31 751.192 2399.62 751.192C2405.72 751.192 2410.57 749.469 2414.16 746.025C2417.74 742.58 2419.54 737.593 2419.54 731.062C2419.54 726.828 2418.71 723.599 2417.06 721.374C2415.48 719.078 2413.19 717.356 2410.17 716.208C2407.16 715.059 2403.5 714.055 2399.19 713.194C2392.09 711.687 2385.81 710.036 2380.36 708.242C2374.9 706.376 2370.63 703.434 2367.55 699.415C2364.53 695.397 2363.03 689.405 2363.03 681.439C2363.03 669.526 2366.29 660.449 2372.82 654.205C2379.42 647.89 2388.07 644.733 2398.76 644.733C2409.89 644.733 2418.71 647.962 2425.24 654.421C2431.85 660.807 2435.15 669.239 2435.15 679.717V683.377H2419.54V679.178C2419.54 673.437 2417.67 668.881 2413.94 665.508C2410.28 662.063 2405.29 660.341 2398.98 660.341C2392.81 660.341 2387.86 662.099 2384.12 665.615C2380.46 669.06 2378.63 674.047 2378.63 680.578C2378.63 684.812 2379.42 688.077 2381 690.373C2382.65 692.598 2385.02 694.248 2388.11 695.325C2391.19 696.401 2394.89 697.406 2399.19 698.339C2406.23 699.774 2412.43 701.425 2417.82 703.29C2423.2 705.156 2427.43 708.134 2430.52 712.225C2433.6 716.315 2435.15 722.379 2435.15 730.416C2435.15 742.114 2431.92 751.12 2425.46 757.435C2419.07 763.678 2410.53 766.8 2399.84 766.8Z" fill="white" fill-opacity="0.4"/>
<path d="M516.877 0.0854492L667.578 150.785H366.178L516.877 0.0854492Z" fill="white" fill-opacity="0.9"/>
<path d="M149.808 151.867L362.931 151.867L149.809 364.989L149.808 151.867Z" fill="white" fill-opacity="0.8"/>
<path d="M881.78 149.703L881.781 362.826L668.659 149.704L881.78 149.703Z" fill="white"/>
<path d="M0.1914 516.772L150.891 366.072L150.891 667.472L0.1914 516.772Z" fill="white" fill-opacity="0.7"/>
<path d="M151.973 883.84L151.973 670.717L365.095 883.839L151.973 883.84Z" fill="white" fill-opacity="0.6"/>
<path d="M516.877 1033.46L366.177 882.758L667.577 882.758L516.877 1033.46Z" fill="white" fill-opacity="0.5"/>
<path d="M883.944 881.674L670.822 881.675L883.944 668.553L883.944 881.674Z" fill="white" fill-opacity="0.4"/>
</svg>
