<svg width="3164" height="1034" viewBox="0 0 3164 1034" fill="none" xmlns="http://www.w3.org/2000/svg">
<path d="M1037.15 486.177C1048.02 486.177 1055.98 483.115 1061.03 476.991C1066.08 470.868 1068.61 463.596 1068.61 455.176V439.101C1068.61 429.15 1065.39 422.108 1058.97 417.974C1052.54 413.688 1045.26 411.544 1037.15 411.544H1019.24V486.177H1037.15ZM1065.39 330.941C1065.39 321.756 1062.87 315.403 1057.82 311.881C1052.76 308.207 1045.49 306.37 1036 306.37H1019.24V372.735H1037.84C1046.72 372.735 1053.53 369.291 1058.28 362.402C1063.02 355.36 1065.39 346.786 1065.39 336.682V330.941ZM1052.76 533.253C1040.82 533.253 1025.36 532.946 1006.38 532.334C987.394 531.722 973.769 531.339 965.502 531.186H943.457V262.05H983.184C992.829 262.05 1003.85 261.744 1016.25 261.131C1028.65 260.366 1037.61 259.983 1043.12 259.983C1061.03 259.983 1076.11 261.438 1088.36 264.346C1100.76 267.255 1110.48 271.618 1117.52 277.436C1124.56 283.253 1129.54 289.989 1132.45 297.644C1135.51 305.298 1137.04 314.407 1137.04 324.971C1137.04 341.199 1133.29 355.13 1125.79 366.765C1118.29 378.4 1107.42 385.672 1093.18 388.581C1129.31 391.795 1147.38 412.999 1147.38 452.19C1147.38 463.978 1145.62 474.695 1142.09 484.34C1138.57 493.831 1133.14 502.328 1125.79 509.829C1118.59 517.178 1108.8 522.919 1096.4 527.052C1084 531.186 1069.45 533.253 1052.76 533.253ZM1168.83 531.186V262.05H1244.84V469.643H1313.28V531.186H1168.83ZM1466.38 531.186L1456.04 488.243H1390.83L1382.1 531.186H1314.59L1384.63 280.651L1379.11 262.05H1473.96L1550.65 531.186H1466.38ZM1420.45 341.045L1400.24 441.397H1444.79L1420.45 341.045ZM1729.64 512.126L1727.58 514.652C1726.05 516.183 1723.44 518.173 1719.77 520.622C1716.25 522.919 1711.96 525.292 1706.91 527.741C1702.01 530.038 1695.43 531.951 1687.16 533.482C1678.89 535.166 1670.02 536.008 1660.52 536.008C1640.47 536.008 1623.32 532.717 1609.08 526.134C1594.85 519.398 1583.67 509.676 1575.56 496.97C1567.6 484.11 1561.86 469.643 1558.33 453.568C1554.81 437.34 1553.05 418.587 1553.05 397.307C1553.05 374.649 1554.81 355.13 1558.33 338.749C1561.86 322.215 1567.67 307.748 1575.79 295.347C1584.05 282.794 1595.38 273.379 1609.77 267.102C1624.16 260.825 1641.69 257.687 1662.36 257.687C1671.85 257.687 1680.73 258.529 1689 260.213C1697.42 261.897 1704 263.81 1708.75 265.954C1713.65 268.097 1718.01 270.547 1721.84 273.302C1725.82 276.058 1728.27 277.972 1729.19 279.043C1730.26 280.115 1731.02 280.957 1731.48 281.569L1728.04 334.386H1693.13L1681.19 307.059C1678.44 306.294 1676.14 305.911 1674.3 305.911C1664.04 305.911 1656.16 308.284 1650.65 313.03C1645.14 317.622 1640.93 326.731 1638.02 340.357C1635.11 353.829 1633.66 373.271 1633.66 398.685C1633.66 413.841 1634.57 427.083 1636.41 438.412C1638.4 449.741 1640.77 458.467 1643.53 464.591C1646.29 470.561 1649.58 475.384 1653.4 479.058C1657.23 482.732 1660.68 485.105 1663.74 486.177C1666.8 487.095 1670.09 487.555 1673.61 487.555C1681.42 487.555 1689.61 486.636 1698.18 484.799C1706.76 482.809 1713.8 479.823 1719.31 475.843L1729.64 512.126ZM1880.31 531.186C1878.47 528.889 1874.49 519.934 1868.37 504.318C1862.4 488.55 1855.36 470.791 1847.24 451.042C1839.28 431.14 1832.24 416.061 1826.12 405.803V531.186H1750.11V262.05H1826.12V390.877L1883.3 262.05H1959.77L1891.33 388.351C1895.77 391.413 1901.67 399.756 1909.02 413.381C1916.36 427.007 1923.25 441.321 1929.68 456.324C1936.11 471.327 1942.77 486.406 1949.66 501.562C1956.55 516.565 1961.6 526.44 1964.82 531.186H1880.31Z" fill="#0A0A0A"/>
<path d="M2143.09 536.008C2131.3 536.008 2120.27 534.937 2110.02 532.793C2099.91 530.803 2091.42 528.124 2084.53 524.756C2077.64 521.388 2071.97 518.173 2067.53 515.111C2063.25 512.049 2059.65 508.987 2056.74 505.926L2062.48 450.124C2068.76 458.544 2077.18 465.892 2087.74 472.169C2098.31 478.292 2109.71 481.354 2121.96 481.354C2134.21 481.354 2143.01 480.053 2148.37 477.45C2153.88 474.848 2156.63 470.102 2156.63 463.213C2156.63 455.864 2153.5 449.588 2147.22 444.383C2141.09 439.177 2130.46 432.901 2115.3 425.552C2109.79 422.797 2105.12 420.347 2101.29 418.204C2097.46 415.907 2092.34 412.233 2085.91 407.181C2079.63 401.976 2074.5 396.618 2070.52 391.107C2066.54 385.442 2063.02 378.247 2059.96 369.521C2056.89 360.641 2055.36 351.15 2055.36 341.045C2055.36 286.392 2086.21 259.065 2147.91 259.065C2157.71 259.065 2166.89 260.136 2175.46 262.28C2184.19 264.27 2191 266.49 2195.9 268.939C2200.8 271.389 2205.24 274.297 2209.22 277.665C2213.35 280.88 2215.96 283.177 2217.03 284.554C2218.1 285.779 2218.87 286.774 2219.32 287.54L2207.84 331.86C2201.87 324.818 2194.37 319.613 2185.34 316.245C2176.46 312.723 2167.96 310.963 2159.85 310.963C2140.25 310.963 2130.46 317.087 2130.46 329.334C2130.46 332.549 2131.07 335.458 2132.29 338.06C2133.52 340.663 2135.51 343.036 2138.26 345.179C2141.02 347.322 2143.54 349.159 2145.84 350.69C2148.29 352.221 2151.58 354.135 2155.72 356.431C2160 358.574 2163.22 360.335 2165.36 361.713C2187.71 371.205 2204.09 382.457 2214.5 395.47C2225.07 408.483 2230.35 424.328 2230.35 443.005C2230.35 473.317 2222.85 496.434 2207.84 512.355C2192.99 528.124 2171.41 536.008 2143.09 536.008ZM2330.69 531.186H2254.68V262.05H2284.99C2293.11 262.05 2305.35 261.744 2321.73 261.131C2338.12 260.366 2351.59 259.983 2362.15 259.983C2391.85 259.983 2414.36 267.867 2429.66 283.636C2444.97 299.404 2452.63 323.057 2452.63 354.594C2452.63 373.578 2450.1 390.877 2445.05 406.492C2440.15 421.955 2433.49 434.661 2425.07 444.612C2416.65 454.563 2407.08 462.218 2396.37 467.576C2385.65 472.934 2374.32 475.613 2362.38 475.613C2360.85 475.613 2359.24 475.613 2357.56 475.613C2356.03 475.613 2354.57 475.613 2353.2 475.613C2351.97 475.46 2350.44 475.384 2348.6 475.384C2346.92 475.231 2345.54 475.154 2344.47 475.154C2343.55 475.001 2342.17 474.924 2340.34 474.924C2338.65 474.771 2337.5 474.695 2336.89 474.695C2336.28 474.695 2335.13 474.618 2333.45 474.465C2331.76 474.312 2330.84 474.236 2330.69 474.236V531.186ZM2377.31 344.49C2377.31 333.161 2374.25 323.976 2368.12 316.933C2362 309.891 2353.2 306.37 2341.71 306.37H2330.69V425.782H2339.19C2351.28 425.782 2360.62 421.725 2367.2 413.611C2373.94 405.497 2377.31 393.786 2377.31 378.476V344.49ZM2470.65 531.186V262.05H2548.96V531.186H2470.65ZM2653.32 531.186H2580.3V283.636L2569.05 262.05H2653.55L2695.81 349.312L2736.22 436.345L2724.97 334.156V262.05H2798.23V531.186H2728.19L2673.53 424.863L2639.78 358.268L2653.32 446.449V531.186ZM2992.04 531.186H2829.22V262.05H2988.59L2984 316.245L2905.23 313.948V365.846H2967.24V419.582L2905.23 414.989V476.073L2992.04 473.776V531.186ZM3012.89 531.186V262.05H3088.9V469.643H3157.33V531.186H3012.89Z" fill="#0A0A0A"/>
<path d="M981.139 768.119C969.657 768.119 960.4 764.459 953.367 757.139C946.406 749.82 942.925 740.204 942.925 728.291V722.909H959.072V728.291C959.072 735.396 961.081 741.137 965.1 745.514C969.119 749.82 974.465 751.973 981.139 751.973C987.813 751.973 993.159 749.82 997.177 745.514C1001.2 741.137 1003.21 735.396 1003.21 728.291V716.235C1003.21 712.288 1003.06 709.167 1002.77 706.87C1002.49 704.502 1001.7 702.6 1000.41 701.165C999.115 699.73 996.962 698.402 993.948 697.182C990.934 695.891 986.664 694.348 981.139 692.554C971.594 689.396 964.203 686.777 958.964 684.696C953.726 682.615 949.958 680.39 947.662 678.022C945.437 675.654 944.074 672.532 943.571 668.657C943.141 664.71 942.925 659.4 942.925 652.726V639.593C942.925 627.609 946.406 617.993 953.367 610.745C960.4 603.425 969.657 599.766 981.139 599.766C992.692 599.766 1001.95 603.425 1008.91 610.745C1015.87 617.993 1019.35 627.609 1019.35 639.593V644.976H1003.21V639.593C1003.21 632.489 1001.2 626.784 997.177 622.478C993.159 618.101 987.813 615.912 981.139 615.912C974.465 615.912 969.119 618.101 965.1 622.478C961.081 626.784 959.072 632.489 959.072 639.593V652.726C959.072 656.673 959.18 659.83 959.395 662.198C959.682 664.495 960.471 666.361 961.763 667.796C963.055 669.159 965.208 670.487 968.222 671.779C971.307 673.07 975.613 674.613 981.139 676.407C990.683 679.493 998.075 682.112 1003.31 684.265C1008.55 686.346 1012.28 688.571 1014.51 690.939C1016.8 693.307 1018.17 696.429 1018.6 700.304C1019.1 704.179 1019.35 709.49 1019.35 716.235V728.291C1019.35 740.204 1015.87 749.82 1008.91 757.139C1001.95 764.459 992.692 768.119 981.139 768.119ZM1080.64 767.258C1073.32 767.258 1066.9 765.679 1061.37 762.522C1055.85 759.364 1051.5 754.951 1048.35 749.282C1045.19 743.541 1043.61 736.867 1043.61 729.26V683.081C1043.61 675.618 1045.19 669.052 1048.35 663.383C1051.5 657.642 1055.85 653.192 1061.37 650.035C1066.9 646.806 1073.32 645.191 1080.64 645.191C1091.62 645.191 1100.48 648.671 1107.23 655.632C1113.97 662.593 1117.35 671.743 1117.35 683.081V729.26C1117.35 740.598 1113.97 749.784 1107.23 756.817C1100.48 763.777 1091.62 767.258 1080.64 767.258ZM1080.64 751.65C1087.17 751.65 1092.3 749.64 1096.03 745.622C1099.84 741.603 1101.74 736.328 1101.74 729.798V682.543C1101.74 676.013 1099.84 670.774 1096.03 666.827C1092.3 662.808 1087.17 660.799 1080.64 660.799C1074.11 660.799 1068.91 662.808 1065.03 666.827C1061.16 670.774 1059.22 676.013 1059.22 682.543V729.798C1059.22 736.328 1061.16 741.603 1065.03 745.622C1068.91 749.64 1074.11 751.65 1080.64 751.65ZM1152.14 764.674V662.629H1130.5V647.882H1152.14V640.132C1152.14 632.453 1153.65 625.672 1156.66 619.787C1159.75 613.903 1164.05 609.31 1169.58 606.009C1175.18 602.708 1181.71 601.057 1189.17 601.057H1197.35V616.665H1189.17C1182.64 616.665 1177.44 618.818 1173.56 623.124C1169.69 627.43 1167.75 633.099 1167.75 640.132V647.882H1197.35V662.629H1167.75V764.674H1152.14ZM1257.59 765.966C1246.46 765.966 1237.53 762.45 1230.78 755.417C1224.11 748.313 1220.77 738.804 1220.77 726.892V662.414H1199.78V647.667H1220.77V618.28H1236.38V647.667H1265.44V662.414H1236.38V726.892C1236.38 733.996 1238.32 739.701 1242.19 744.007C1246.07 748.241 1251.2 750.358 1257.59 750.358H1265.44V765.966H1257.59ZM1294.51 764.674L1275.89 647.882H1292.15L1305.17 747.559L1302.8 747.344L1321.96 647.882H1336.71L1355.87 747.344L1353.61 747.559L1366.42 647.882H1382.78L1364.16 764.674H1346.51L1327.99 674.685H1331L1312.28 764.674H1294.51ZM1430.74 767.258C1419.97 767.258 1411.65 764.28 1405.76 758.324C1399.88 752.367 1396.94 744.832 1396.94 735.719C1396.94 730.049 1397.98 725.349 1400.06 721.617C1402.14 717.814 1404.8 714.728 1408.03 712.36C1411.33 709.992 1414.81 708.09 1418.47 706.655C1422.84 704.861 1427.29 703.462 1431.81 702.457C1436.41 701.38 1440.64 700.268 1444.52 699.12C1448.39 697.9 1451.51 696.249 1453.88 694.168C1456.25 692.087 1457.43 689.145 1457.43 685.342V682.543C1457.43 676.013 1455.46 670.774 1451.51 666.827C1447.64 662.808 1442.47 660.799 1436.01 660.799C1429.48 660.799 1424.32 662.808 1420.51 666.827C1416.78 670.774 1414.91 676.013 1414.91 682.543V685.772H1399.31V683.081C1399.31 671.743 1402.68 662.593 1409.42 655.632C1416.17 648.671 1425.03 645.191 1436.01 645.191C1443.26 645.191 1449.65 646.806 1455.17 650.035C1460.77 653.192 1465.15 657.606 1468.31 663.275C1471.46 668.944 1473.04 675.546 1473.04 683.081V764.674H1457.43V748.528L1460.02 751.973C1457.29 756.852 1453.45 760.62 1448.5 763.275C1443.55 765.93 1437.63 767.258 1430.74 767.258ZM1433.97 752.403C1441.29 752.403 1447.03 750.358 1451.19 746.268C1455.35 742.105 1457.43 736.185 1457.43 728.506V707.839C1453.06 710.566 1448.18 712.432 1442.79 713.436C1437.41 714.369 1432.28 715.661 1427.4 717.312C1423.1 718.747 1419.54 720.792 1416.74 723.447C1413.95 726.031 1412.55 729.726 1412.55 734.534C1412.55 739.773 1414.41 744.079 1418.14 747.452C1421.88 750.753 1427.15 752.403 1433.97 752.403ZM1501.8 764.674V647.882H1517.41V664.674L1514.72 661.445C1517.45 656.637 1521.07 652.941 1525.59 650.358C1530.11 647.774 1535.35 646.483 1541.31 646.483H1546.37V662.091H1538.08C1531.84 662.091 1526.81 664.028 1523.01 667.904C1519.28 671.779 1517.41 676.981 1517.41 683.512V764.674H1501.8ZM1596.15 767.258C1588.83 767.258 1582.41 765.679 1576.88 762.522C1571.35 759.364 1567.01 754.951 1563.85 749.282C1560.7 743.541 1559.12 736.867 1559.12 729.26V683.081C1559.12 675.618 1560.7 669.052 1563.85 663.383C1567.01 657.642 1571.35 653.192 1576.88 650.035C1582.41 646.806 1588.83 645.191 1596.15 645.191C1607.13 645.191 1615.99 648.671 1622.74 655.632C1629.48 662.593 1632.85 671.743 1632.85 683.081V708.593H1571.61V693.523H1617.25V682.543C1617.25 676.013 1615.34 670.774 1611.54 666.827C1607.81 662.808 1602.68 660.799 1596.15 660.799C1589.62 660.799 1584.41 662.808 1580.54 666.827C1576.66 670.774 1574.73 676.013 1574.73 682.543V729.798C1574.73 736.328 1576.66 741.603 1580.54 745.622C1584.41 749.64 1589.62 751.65 1596.15 751.65C1602.68 751.65 1607.81 749.64 1611.54 745.622C1615.34 741.603 1617.25 736.328 1617.25 729.798V727.107H1632.85V729.26C1632.85 740.598 1629.48 749.784 1622.74 756.817C1615.99 763.777 1607.13 767.258 1596.15 767.258ZM1740.95 768.119C1729.46 768.119 1720.21 764.459 1713.17 757.139C1706.21 749.82 1702.73 740.204 1702.73 728.291V722.909H1718.88V728.291C1718.88 735.396 1720.89 741.137 1724.91 745.514C1728.93 749.82 1734.27 751.973 1740.95 751.973C1747.62 751.973 1752.97 749.82 1756.98 745.514C1761 741.137 1763.01 735.396 1763.01 728.291V716.235C1763.01 712.288 1762.87 709.167 1762.58 706.87C1762.3 704.502 1761.51 702.6 1760.21 701.165C1758.92 699.73 1756.77 698.402 1753.76 697.182C1750.74 695.891 1746.47 694.348 1740.95 692.554C1731.4 689.396 1724.01 686.777 1718.77 684.696C1713.53 682.615 1709.77 680.39 1707.47 678.022C1705.24 675.654 1703.88 672.532 1703.38 668.657C1702.95 664.71 1702.73 659.4 1702.73 652.726V639.593C1702.73 627.609 1706.21 617.993 1713.17 610.745C1720.21 603.425 1729.46 599.766 1740.95 599.766C1752.5 599.766 1761.76 603.425 1768.72 610.745C1775.68 617.993 1779.16 627.609 1779.16 639.593V644.976H1763.01V639.593C1763.01 632.489 1761 626.784 1756.98 622.478C1752.97 618.101 1747.62 615.912 1740.95 615.912C1734.27 615.912 1728.93 618.101 1724.91 622.478C1720.89 626.784 1718.88 632.489 1718.88 639.593V652.726C1718.88 656.673 1718.99 659.83 1719.2 662.198C1719.49 664.495 1720.28 666.361 1721.57 667.796C1722.86 669.159 1725.01 670.487 1728.03 671.779C1731.11 673.07 1735.42 674.613 1740.95 676.407C1750.49 679.493 1757.88 682.112 1763.12 684.265C1768.36 686.346 1772.09 688.571 1774.32 690.939C1776.61 693.307 1777.98 696.429 1778.41 700.304C1778.91 704.179 1779.16 709.49 1779.16 716.235V728.291C1779.16 740.204 1775.68 749.82 1768.72 757.139C1761.76 764.459 1752.5 768.119 1740.95 768.119ZM1840.45 767.258C1833.13 767.258 1826.7 765.679 1821.18 762.522C1815.65 759.364 1811.31 754.951 1808.15 749.282C1805 743.541 1803.42 736.867 1803.42 729.26V683.081C1803.42 675.618 1805 669.052 1808.15 663.383C1811.31 657.642 1815.65 653.192 1821.18 650.035C1826.7 646.806 1833.13 645.191 1840.45 645.191C1851.43 645.191 1860.29 648.671 1867.03 655.632C1873.78 662.593 1877.15 671.743 1877.15 683.081V729.26C1877.15 740.598 1873.78 749.784 1867.03 756.817C1860.29 763.777 1851.43 767.258 1840.45 767.258ZM1840.45 751.65C1846.98 751.65 1852.11 749.64 1855.84 745.622C1859.64 741.603 1861.54 736.328 1861.54 729.798V682.543C1861.54 676.013 1859.64 670.774 1855.84 666.827C1852.11 662.808 1846.98 660.799 1840.45 660.799C1833.92 660.799 1828.71 662.808 1824.84 666.827C1820.96 670.774 1819.03 676.013 1819.03 682.543V729.798C1819.03 736.328 1820.96 741.603 1824.84 745.622C1828.71 749.64 1833.92 751.65 1840.45 751.65ZM1904.41 764.674V603.21H1920.02V764.674H1904.41ZM1981.77 767.258C1975.6 767.258 1970.08 765.859 1965.2 763.06C1960.32 760.261 1956.44 756.099 1953.57 750.573C1950.7 744.976 1949.27 738.087 1949.27 729.906V647.882H1964.88V729.906C1964.88 736.436 1966.74 741.711 1970.47 745.729C1974.2 749.676 1979.12 751.65 1985.22 751.65C1991.46 751.65 1996.45 749.676 2000.18 745.729C2003.91 741.711 2005.78 736.436 2005.78 729.906V647.882H2021.39V764.674H2005.78V749.174L2008.47 752.511C2005.82 757.175 2002.23 760.799 1997.71 763.383C1993.19 765.966 1987.87 767.258 1981.77 767.258ZM2095.81 765.966C2084.69 765.966 2075.76 762.45 2069.01 755.417C2062.34 748.313 2059 738.804 2059 726.892V662.414H2038.01V647.667H2059V618.28H2074.61V647.667H2103.67V662.414H2074.61V726.892C2074.61 733.996 2076.54 739.701 2080.42 744.007C2084.29 748.241 2089.43 750.358 2095.81 750.358H2103.67V765.966H2095.81ZM2123.48 764.674V647.882H2139.09V764.674H2123.48ZM2123.48 634.857V609.669H2139.09V634.857H2123.48ZM2203.32 767.258C2196 767.258 2189.58 765.679 2184.05 762.522C2178.53 759.364 2174.19 754.951 2171.03 749.282C2167.87 743.541 2166.29 736.867 2166.29 729.26V683.081C2166.29 675.618 2167.87 669.052 2171.03 663.383C2174.19 657.642 2178.53 653.192 2184.05 650.035C2189.58 646.806 2196 645.191 2203.32 645.191C2214.3 645.191 2223.16 648.671 2229.91 655.632C2236.65 662.593 2240.03 671.743 2240.03 683.081V729.26C2240.03 740.598 2236.65 749.784 2229.91 756.817C2223.16 763.777 2214.3 767.258 2203.32 767.258ZM2203.32 751.65C2209.85 751.65 2214.98 749.64 2218.71 745.622C2222.52 741.603 2224.42 736.328 2224.42 729.798V682.543C2224.42 676.013 2222.52 670.774 2218.71 666.827C2214.98 662.808 2209.85 660.799 2203.32 660.799C2196.79 660.799 2191.59 662.808 2187.71 666.827C2183.84 670.774 2181.9 676.013 2181.9 682.543V729.798C2181.9 736.328 2183.84 741.603 2187.71 745.622C2191.59 749.64 2196.79 751.65 2203.32 751.65ZM2267.29 764.674V647.882H2282.9V663.49L2280.2 660.369C2282.93 655.489 2286.56 651.757 2291.08 649.174C2295.6 646.518 2300.87 645.191 2306.9 645.191C2316.66 645.191 2324.52 648.564 2330.47 655.309C2336.43 662.055 2339.41 671.133 2339.41 682.543V764.674H2323.8V682.543C2323.8 676.013 2321.93 670.774 2318.2 666.827C2314.54 662.808 2309.66 660.799 2303.56 660.799C2297.32 660.799 2292.3 662.808 2288.49 666.827C2284.76 670.774 2282.9 676.013 2282.9 682.543V764.674H2267.29ZM2399.84 767.258C2388.72 767.258 2379.78 764.064 2373.04 757.678C2366.36 751.219 2363.03 742.715 2363.03 732.166V728.399H2378.63V732.812C2378.63 738.481 2380.54 743.038 2384.34 746.483C2388.21 749.927 2393.31 751.65 2399.62 751.65C2405.72 751.65 2410.57 749.927 2414.16 746.483C2417.74 743.038 2419.54 738.051 2419.54 731.52C2419.54 727.286 2418.71 724.057 2417.06 721.833C2415.48 719.536 2413.19 717.814 2410.17 716.666C2407.16 715.518 2403.5 714.513 2399.19 713.652C2392.09 712.145 2385.81 710.494 2380.36 708.7C2374.9 706.834 2370.63 703.892 2367.55 699.873C2364.53 695.855 2363.03 689.863 2363.03 681.897C2363.03 669.985 2366.29 660.907 2372.82 654.663C2379.42 648.348 2388.07 645.191 2398.76 645.191C2409.89 645.191 2418.71 648.42 2425.24 654.879C2431.85 661.266 2435.15 669.698 2435.15 680.175V683.835H2419.54V679.637C2419.54 673.896 2417.67 669.339 2413.94 665.966C2410.28 662.521 2405.29 660.799 2398.98 660.799C2392.81 660.799 2387.86 662.557 2384.12 666.074C2380.46 669.518 2378.63 674.506 2378.63 681.036C2378.63 685.27 2379.42 688.535 2381 690.831C2382.65 693.056 2385.02 694.707 2388.11 695.783C2391.19 696.859 2394.89 697.864 2399.19 698.797C2406.23 700.232 2412.43 701.883 2417.82 703.749C2423.2 705.614 2427.43 708.593 2430.52 712.683C2433.6 716.773 2435.15 722.837 2435.15 730.875C2435.15 742.572 2431.92 751.578 2425.46 757.893C2419.07 764.136 2410.53 767.258 2399.84 767.258Z" fill="#0A0A0A" fill-opacity="0.4"/>
<path d="M516.875 0.542969L667.576 151.243H366.176L516.875 0.542969Z" fill="#0A0A0A" fill-opacity="0.9"/>
<path d="M149.808 152.325L362.93 152.325L149.808 365.447L149.808 152.325Z" fill="#0A0A0A" fill-opacity="0.8"/>
<path d="M881.78 150.161L881.781 363.283L668.659 150.161L881.78 150.161Z" fill="#0A0A0A"/>
<path d="M0.190911 517.229L150.891 366.529L150.891 667.929L0.190911 517.229Z" fill="#0A0A0A" fill-opacity="0.7"/>
<path d="M151.973 884.297L151.972 671.174L365.094 884.296L151.973 884.297Z" fill="#0A0A0A" fill-opacity="0.6"/>
<path d="M516.878 1033.91L366.177 883.214L667.577 883.214L516.878 1033.91Z" fill="#0A0A0A" fill-opacity="0.5"/>
<path d="M883.944 882.132L670.821 882.132L883.943 669.01L883.944 882.132Z" fill="#0A0A0A" fill-opacity="0.4"/>
</svg>
